<svg xmlns="http://www.w3.org/2000/svg" version="1.1" xmlns:xlink="http://www.w3.org/1999/xlink" xmlns:svgjs="http://svgjs.dev/svgjs" width="2000" height="1500" viewBox="0 0 2000 1500"><rect width="2000" height="1500" fill="#0c0202"></rect><g transform="matrix(0.49603174603174605,0,0,0.49603174603174605,504.1512082692218,250.40485829959516)"><svg viewBox="0 0 245 247" data-background-color="#0c0202" preserveAspectRatio="xMidYMid meet" height="2016" width="2000" xmlns="http://www.w3.org/2000/svg" xmlns:xlink="http://www.w3.org/1999/xlink"><g id="tight-bounds" transform="matrix(1,0,0,1,-0.045182394166999984,-0.09999999999999432)"><svg viewBox="0 0 245.09036478833397 247.2" height="247.2" width="245.09036478833397"><g><svg viewBox="0 0 395.52 398.9244705088213" height="247.2" width="245.09036478833397"><g transform="matrix(1,0,0,1,0,281.7351104474559)"><svg viewBox="0 0 395.52 117.18936006136536" height="117.18936006136536" width="395.52"><g id="textblocktransform"><svg viewBox="0 0 395.52 117.18936006136536" height="117.18936006136536" width="395.52" id="textblock"><g><svg viewBox="0 0 395.52 63.20634108923548" height="63.20634108923548" width="395.52"><g transform="matrix(1,0,0,1,0,0)"><svg width="395.52" viewBox="-12.5 -31.25 195.54 31.25" height="63.20634108923548" data-palette-color="#ff0000"><path d="M15.7-31.25L29-31.25Q35.45-31.25 38.18-28.98 40.9-26.7 40.9-21.6L40.9-21.6Q40.9-19 40.3-15.6L40.3-15.6Q38.8-7.2 35.18-3.6 31.55 0 23.5 0L23.5 0 10.2 0 15.7-31.25ZM27.7-23.25L27.7-23.25 23.75-23.25 21.1-8 25.05-8Q27-8 27.95-8.47 28.9-8.95 29.2-10.65L29.2-10.65 30.95-20.6Q31-20.9 31-21.4L31-21.4Q31-22.55 30.2-22.9 29.4-23.25 27.7-23.25ZM9.1-2.4L8.7-0.15-12.5-2.4 9.1-2.4ZM10.8-12.05L10.4-9.8-10.8-12.05 10.8-12.05ZM11.65-16.85L11.25-14.6-9.95-16.85 11.65-16.85ZM12.5-21.65L12.1-19.4-9.1-21.65 12.5-21.65ZM13.3-26.45L12.95-24.2-8.25-26.45 13.3-26.45ZM9.95-7.25L9.55-5-11.65-7.25 9.95-7.25ZM14.15-31.25L13.75-29-7.4-31.25 14.15-31.25ZM77.1 0L68.35 0 68.15-4.05 61.85-4.05 60.3 0 51.65 0 62.75-26.45 75.15-26.45 77.1 0ZM64.5-11.2L68.15-11.2 68.15-18.8 67.45-18.8 64.5-11.2ZM51-2.4L50.05-0.2 29.55-2.4 51-2.4ZM53.05-7.25L52.1-5.05 31.6-7.25 53.05-7.25ZM55.05-12.05L54.15-9.85 33.65-12.05 55.05-12.05ZM57.1-16.85L56.15-14.65 35.7-16.85 57.1-16.85ZM59.1-21.65L58.2-19.45 37.75-21.65 59.1-21.65ZM61.1-26.45L60.2-24.3 39.8-26.45 61.1-26.45ZM112.45 0L105.65 0 100.5-9.9 100.3-9.9 98.55 0 90.15 0 94.75-26.45 101.55-26.45 106.75-16.6 107.05-16.6 108.75-26.45 117.09-26.45 112.45 0ZM88.9-2.4L88.5-0.15 67.3-2.4 88.9-2.4ZM90.6-12.05L90.2-9.8 69-12.05 90.6-12.05ZM91.45-16.85L91.05-14.6 69.84-16.85 91.45-16.85ZM92.3-21.65L91.9-19.4 70.7-21.65 92.3-21.65ZM93.1-26.45L92.75-24.2 71.55-26.45 93.1-26.45ZM89.75-7.25L89.35-5 68.15-7.25 89.75-7.25ZM151.09-26.45L149.74-18.95 144.34-18.95 141.04 0 132.24 0 135.54-18.95 129.99-18.95 131.34-26.45 151.09-26.45ZM131.14-2.4L130.74-0.15 109.54-2.4 131.14-2.4ZM132.84-12.05L132.44-9.8 111.24-12.05 132.84-12.05ZM133.69-16.85L133.29-14.6 112.09-16.85 133.69-16.85ZM128.89-21.65L128.49-19.4 107.29-21.65 128.89-21.65ZM129.69-26.45L129.34-24.2 108.14-26.45 129.69-26.45ZM131.99-7.25L131.59-5 110.39-7.25 131.99-7.25ZM161.64-2.4L161.24-0.15 140.04-2.4 161.64-2.4ZM162.49-7.25L162.09-5 140.89-7.25 162.49-7.25ZM159.64-21.65L160.09-19.4 138.89-21.65 159.64-21.65ZM158.64-26.45L159.09-24.2 137.89-26.45 158.64-26.45ZM160.64-16.85L161.09-14.6 139.89-16.85 160.64-16.85ZM161.59-12.05L162.09-9.8 140.89-12.05 161.59-12.05ZM160.14-26.45L168.74-26.45 169.84-16.85 170.14-16.85 174.29-26.45 183.04-26.45 172.44-7.55 171.19 0 162.74 0 164.04-7.55 160.14-26.45Z" opacity="1" transform="matrix(1,0,0,1,0,0)" fill="#ff0000" class="wordmark-text-0" data-fill-palette-color="primary" id="text-0"></path></svg></g></svg></g><g transform="matrix(1,0,0,1,0,78.12784126821784)"><svg viewBox="0 0 395.52 39.06151879314753" height="39.06151879314753" width="395.52"><g transform="matrix(1,0,0,1,0,0)"><svg width="395.52" viewBox="0 -35.3 364.88 36.029999999999994" height="39.06151879314753" data-palette-color="#ca3433"><path d="M13.96-17.63Q13.87-15.14 13.77-12.62 13.67-10.11 13.67-7.62L13.67-7.62Q13.67-6.79 14.01-6.2 14.36-5.62 14.92-5.25 15.48-4.88 16.19-4.74 16.89-4.59 17.63-4.59L17.63-4.59Q18.55-4.59 19.46-4.74 20.36-4.88 21.24-5.13L21.24-5.13 20.46 0.1Q17.63 0.1 15.14-0.07 12.65-0.24 10.79-1.12 8.94-2 7.86-3.93 6.79-5.86 6.79-9.38L6.79-9.38Q6.79-11.43 6.91-13.5 7.03-15.58 7.23-17.63L7.23-17.63 0-17.58 0.34-22.36Q2.1-22.22 3.91-22.19 5.71-22.17 7.52-22.17L7.52-22.17Q7.62-23.58 7.67-24.93 7.71-26.27 7.71-27.69L7.71-27.69Q7.71-27.98 7.71-28.86 7.71-29.74 7.62-30.69 7.52-31.64 7.32-32.42 7.13-33.2 6.79-33.35L6.79-33.35 15.77-33.2Q15.58-33.2 15.48-32.91 15.38-32.62 15.28-32.47L15.28-32.47Q14.99-31.54 14.82-30.22 14.65-28.91 14.53-27.47 14.4-26.03 14.33-24.68 14.26-23.34 14.21-22.31L14.21-22.31Q15.87-22.41 17.58-22.49 19.29-22.56 20.95-22.95L20.95-22.95 20.95-17.68 13.96-17.63ZM122.03 0.73L122.03 0.73Q119.64 0.73 116.95 0.1 114.27-0.54 112-1.88 109.73-3.22 108.24-5.27 106.75-7.32 106.75-10.16L106.75-10.16Q106.75-13.62 108.12-16.36 109.48-19.09 111.78-20.97 114.07-22.85 117.1-23.85 120.13-24.85 123.45-24.85L123.45-24.85Q126.09-24.85 128.14-24 130.19-23.14 131.55-21.61 132.92-20.07 133.63-17.97 134.34-15.87 134.34-13.33L134.34-13.33Q134.34-10.89 133.6-8.64L133.6-8.64 113.24-8.64Q113.73-7.18 114.78-6.25 115.83-5.32 117.17-4.81 118.52-4.3 120.01-4.1 121.5-3.91 122.81-3.91L122.81-3.91Q123.64-3.91 125.04-4.03 126.43-4.15 127.89-4.42 129.36-4.69 130.65-5.08 131.94-5.47 132.58-6.05L132.58-6.05 134.97-1.86Q131.75-0.63 128.62 0.05 125.5 0.73 122.03 0.73ZM122.03-20.26L122.03-20.26Q120.57-20.26 119.13-19.68 117.69-19.09 116.51-18.14 115.34-17.19 114.46-15.89 113.59-14.6 113.19-13.23L113.19-13.23 127.16-13.23Q127.31-14.7 127.18-15.99 127.06-17.29 126.52-18.24 125.99-19.19 124.91-19.73 123.84-20.26 122.03-20.26ZM240.74-13.82Q241.38-14.5 242.01-15.43 242.65-16.36 242.65-17.29L242.65-17.29Q242.65-18.16 242.01-18.73 241.38-19.29 240.5-19.58 239.62-19.87 238.67-20 237.72-20.12 237.08-20.12L237.08-20.12Q235.08-20.12 233.32-19.41 231.56-18.7 230.25-17.46 228.93-16.21 228.17-14.5 227.41-12.79 227.41-10.74L227.41-10.74Q227.41-8.84 228.22-7.71 229.03-6.59 230.27-6.03 231.52-5.47 233.08-5.32 234.64-5.18 236.2-5.18L236.2-5.18Q238.6-5.18 241.18-5.57 243.77-5.96 246.07-6.64L246.07-6.64 247.39-2.29Q245.04-1.42 242.16-1 239.28-0.59 236.74-0.59L236.74-0.59Q235.23-0.59 233.44-0.76 231.66-0.93 229.86-1.34 228.05-1.76 226.36-2.44 224.68-3.13 223.36-4.2 222.04-5.27 221.26-6.76 220.48-8.25 220.48-10.21L220.48-10.21Q220.48-13.77 222.21-16.48 223.95-19.19 226.66-21.02 229.37-22.85 232.66-23.78 235.96-24.71 239.13-24.71L239.13-24.71Q240.89-24.71 242.65-24.44 244.41-24.17 245.82-23.44 247.24-22.71 248.12-21.39 249-20.07 249-17.97L249-17.97Q249-16.89 248.8-15.87 248.61-14.84 248.31-13.82L248.31-13.82 240.74-13.82ZM353.94-23.44L353.94-23.44Q356.09-23.44 357.99-22.83 359.9-22.22 361.34-21 362.78-19.78 363.61-18.02 364.44-16.26 364.44-13.96L364.44-13.96Q364.44-13.43 364.41-12.3 364.39-11.18 364.39-9.79 364.39-8.4 364.39-6.88 364.39-5.37 364.44-4.05 364.49-2.73 364.58-1.76 364.68-0.78 364.88-0.49L364.88-0.49 356.53-0.49Q357.26-2.59 357.7-5.03 358.14-7.47 358.14-9.72L358.14-9.72Q358.14-11.52 357.77-13.13 357.41-14.75 356.55-15.94 355.7-17.14 354.31-17.82 352.91-18.51 350.86-18.51L350.86-18.51Q348.71-18.51 346.74-17.43 344.76-16.36 343.39-14.75L343.39-14.75Q343.34-13.18 343.34-11.6 343.34-10.01 343.34-8.4L343.34-8.4Q343.34-8.15 343.34-7.42 343.34-6.69 343.34-5.71 343.34-4.74 343.39-3.66 343.44-2.59 343.49-1.66 343.54-0.73 343.64-0.07 343.73 0.59 343.88 0.73L343.88 0.73 335.24 0.73Q335.43 0.49 335.6-0.93 335.77-2.34 335.95-4.32 336.12-6.3 336.26-8.62 336.41-10.94 336.51-13.01 336.6-15.09 336.68-16.65 336.75-18.21 336.8-18.75L336.8-18.75Q336.95-22.56 336.95-26.46L336.95-26.46Q336.95-26.71 336.95-27.42 336.95-28.13 336.92-29.08 336.9-30.03 336.85-31.08 336.8-32.13 336.7-33.03 336.6-33.94 336.43-34.57 336.26-35.21 336.02-35.3L336.02-35.3 345.35-35.21Q345.1-35.21 344.95-34.81 344.81-34.42 344.76-34.28L344.76-34.28Q344.37-33.01 344.25-31.62 344.12-30.22 344.03-28.91L344.03-28.91Q343.83-26.81 343.73-24.73 343.64-22.66 343.54-20.56L343.54-20.56Q345.74-22.12 348.52-22.78 351.3-23.44 353.94-23.44Z" opacity="1" transform="matrix(1,0,0,1,0,0)" fill="#ca3433" class="slogan-text-1" data-fill-palette-color="secondary" id="text-1"></path></svg></g></svg></g></svg></g></svg></g><g transform="matrix(1,0,0,1,75.54432,0)"><svg viewBox="0 0 244.43135999999998 244.43135999999998" height="244.43135999999998" width="244.43135999999998"><g><svg viewBox="0 0 244.43135999999998 244.43135999999998" height="244.43135999999998" width="244.43135999999998"><g transform="matrix(1,0,0,1,64.60265593644992,75.51750226065317)"><svg viewBox="0 0 115.22604812710014 93.39635547869365" height="93.39635547869365" width="115.22604812710014"><g><svg xmlns:x="http://ns.adobe.com/Extensibility/1.0/" xmlns:i="http://ns.adobe.com/AdobeIllustrator/10.0/" xmlns:graph="http://ns.adobe.com/Graphs/1.0/" xmlns="http://www.w3.org/2000/svg" xmlns:xlink="http://www.w3.org/1999/xlink" version="1.1" x="0" y="0" viewBox="3.499999999999999 12.3 92.9 75.3" enable-background="new 0 0 100 100" xml:space="preserve" height="93.39635547869365" width="115.22604812710014" class="icon-cg-0" data-fill-palette-color="accent" id="cg-0"><path d="M10.7 87.6h78.5c4 0 7.2-3.2 7.2-7.2V19.5c0-4-3.2-7.2-7.2-7.2H10.7c-4 0-7.2 3.2-7.2 7.2v60.9C3.6 84.4 6.8 87.6 10.7 87.6zM89.3 82.6H10.7c-1.2 0-2.2-1-2.2-2.2V34.9h82.9v45.5C91.4 81.7 90.5 82.6 89.3 82.6zM10.7 17.4h78.5c1.2 0 2.2 1 2.2 2.2v10.4H8.6V19.5C8.6 18.3 9.5 17.4 10.7 17.4zM21.9 23.6c0-1.7 1.4-3 3-3s3 1.4 3 3c0 1.7-1.4 3-3 3S21.9 25.3 21.9 23.6zM31.9 23.6c0-1.7 1.4-3 3-3s3 1.4 3 3c0 1.7-1.4 3-3 3S31.9 25.3 31.9 23.6zM11.9 23.6c0-1.7 1.4-3 3-3 1.7 0 3 1.4 3 3 0 1.7-1.4 3-3 3C13.3 26.7 11.9 25.3 11.9 23.6zM85.4 74.7c0 1.4-1.1 2.5-2.5 2.5H17.1c-1.4 0-2.5-1.1-2.5-2.5s1.1-2.5 2.5-2.5h65.8C84.3 72.2 85.4 73.4 85.4 74.7zM85.4 64.2c0 1.4-1.1 2.5-2.5 2.5H34.4c-1.4 0-2.5-1.1-2.5-2.5s1.1-2.5 2.5-2.5h48.5C84.3 61.7 85.4 62.8 85.4 64.2zM85.4 53.7c0 1.4-1.1 2.5-2.5 2.5H17.1c-1.4 0-2.5-1.1-2.5-2.5s1.1-2.5 2.5-2.5h65.8C84.3 51.2 85.4 52.3 85.4 53.7zM85.4 43.1c0 1.4-1.1 2.5-2.5 2.5H50c-1.4 0-2.5-1.1-2.5-2.5s1.1-2.5 2.5-2.5h32.9C84.3 40.6 85.4 41.7 85.4 43.1z" fill="#ed2647" data-fill-palette-color="accent"></path></svg><g></g></g></svg></g><g id="text-0"><path d="M12.764 70.404l7.352-12.656c2.376-4.09 4.788-6.581 7.236-7.472 2.445-0.885 5.282-0.389 8.514 1.488v0c1.654 0.961 3.448 2.257 5.383 3.889v0c4.77 4.045 7.63 7.879 8.581 11.502 0.947 3.629-0.061 7.994-3.024 13.095v0l-7.352 12.656zM27.006 63.403v0l-2.184 3.76 13.047 10.955 2.184-3.759c0.72-1.239 1.102-2.247 1.149-3.026 0.052-0.775-0.409-1.57-1.382-2.385v0l-8.498-7.164c-0.172-0.147-0.416-0.312-0.732-0.495v0c-0.73-0.424-1.354-0.447-1.871-0.068-0.517 0.379-1.088 1.107-1.713 2.182zM36.56 92.62l1.923 1.633-13.862 18.92zM28.321 85.677l1.919 1.619-13.854 18.925zM24.228 82.209l1.914 1.628-13.854 18.925zM20.13 78.75l1.915 1.628-13.854 18.925zM16.007 75.335l1.945 1.575-13.854 18.925zM32.419 89.136l1.919 1.619-13.859 18.934zM11.909 71.876l1.914 1.628-13.823 18.872z" fill="#ed2647" data-fill-palette-color="accent"></path><path d="M97.425 36.142l-8.667 4.172-2.136-3.921-6.246 3.007 0.4 4.757-8.576 4.129-1.619-31.518 12.293-5.918zM79.594 31.047l3.616-1.741-3.627-7.534-0.694 0.334zM70.404 46.215l0.111 2.635-21.371 7.601zM70.128 40.431l0.11 2.635-21.371 7.601zM69.819 34.718l0.156 2.614-21.371 7.601zM69.565 28.98l0.101 2.64-21.316 7.574zM69.256 23.267l0.156 2.614-21.326 7.579zM68.947 17.555l0.129 2.559-21.244 7.607z" fill="#ed2647" data-fill-palette-color="accent"></path><path d="M146.101 35.357l-7.4-1.09-4.017-11.606-0.221-0.032-3.493 10.499-9.146-1.347 9.246-28.053 7.41 1.092 4.076 11.553 0.321 0.047 3.435-10.446 9.085 1.338zM120.846 28.962l-0.793 2.394-22.712-5.856zM124.248 18.737l-0.792 2.383-22.723-5.848zM125.94 13.648l-0.791 2.383-22.714-5.846zM127.632 8.56l-0.791 2.383-22.714-5.846zM129.275 3.464l-0.742 2.39-22.713-5.846zM122.556 23.825l-0.802 2.382-22.713-5.846z" fill="#ed2647" data-fill-palette-color="accent"></path><path d="M210.572 39.303l-6.471 5.329-4.526-3.847-16.274 13.531-7.376-6.269 16.267-13.537-4.65-3.951 6.478-5.322zM176.719 45.251l-1.948 1.603-16.164-16.996zM185.012 38.372l-1.933 1.602-16.171-16.988zM189.15 34.958l-1.941 1.596-16.17-16.988zM188.546 27.514l-1.941 1.596-16.17-16.988zM192.638 24.062l-1.895 1.635-16.178-16.995zM180.882 41.792l-1.934 1.602-16.17-16.988z" fill="#ed2647" data-fill-palette-color="accent"></path><path d="M207.245 80.028l-2.484 0.431-5.567-22.784zM212.581 79.108l-2.478 0.419-5.576-22.781zM226.421 70.784l-2.158 1.305-5.576-22.781zM231.019 67.964l-2.159 1.306-5.579-22.791zM221.827 73.613l-2.158 1.305-5.577-22.781zM217.213 76.384l-2.142 1.353-5.576-22.781zM231.579 69.519l3.204 8.897-9.528 4.714 0.113 0.315 11.483 0.712 3.263 9.06-23.519-3.919-8.277 1.516-3.15-8.745 8.295-1.468z" fill="#ed2647" data-fill-palette-color="accent"></path><path d="M47.06 156.041l7.352 12.656c2.376 4.09 3.345 7.419 2.906 9.987-0.442 2.562-2.278 4.782-5.509 6.659v0c-1.654 0.961-3.669 1.877-6.046 2.75v0c-5.873 2.146-10.62 2.731-14.242 1.756-3.619-0.969-6.911-4.007-9.878-9.114v0l-7.352-12.656zM46.086 171.881v0l-2.184-3.76-15.98 5.907 2.184 3.76c0.72 1.239 1.406 2.071 2.06 2.496 0.648 0.429 1.566 0.423 2.755-0.018v0l10.433-3.834c0.213-0.077 0.478-0.207 0.794-0.39v0c0.73-0.424 1.059-0.955 0.985-1.593-0.073-0.637-0.422-1.494-1.047-2.568zM15.973 165.707l-2.371 0.862-9.569-21.414zM26.086 161.989l-2.357 0.866-9.577-21.41zM31.126 160.152l-2.363 0.856-9.577-21.409zM36.161 158.305l-2.363 0.857-9.577-21.409zM41.17 156.415l-2.332 0.909-9.577-21.409zM21.051 163.835l-2.357 0.866-9.582-21.418zM46.204 154.569l-2.362 0.857-9.546-21.357z" fill="#ed2647" data-fill-palette-color="accent"></path><path d="M84.801 236.446l-8.667-4.173 1.734-4.115-6.247-3.008-3.469 3.28-8.575-4.129 23.628-20.921 12.293 5.918zM77.663 219.33l3.617 1.741 3.628-7.535-0.695-0.334zM60.076 221.605l-1.992 1.73-19.269-11.966zM64.425 217.782l-1.991 1.73-19.269-11.966zM68.698 213.978l-1.946 1.752-19.269-11.966zM73.025 210.201l-2 1.725-19.215-11.94zM77.298 206.397l-1.946 1.751-19.223-11.944zM81.571 202.593l-1.92 1.697-19.195-11.863z" fill="#ed2647" data-fill-palette-color="accent"></path><path d="M150.343 239.8l-7.401 1.09-7.194-9.954-0.22 0.033-0.317 11.06-9.146 1.348 0.763-29.527 7.41-1.092 7.235 9.886 0.331-0.048 0.266-10.992 9.085-1.338zM124.316 240.96l-0.069 2.521-23.436 0.942zM124.624 230.188l-0.07 2.51-23.445 0.954zM124.777 224.828l-0.07 2.51-23.435 0.952zM124.94 219.466l-0.081 2.511-23.434 0.953zM125.033 214.114l-0.021 2.503-23.434 0.953zM124.472 235.548l-0.081 2.512-23.435 0.953z" fill="#ed2647" data-fill-palette-color="accent"></path><path d="M191.726 184.891l4.216 7.245-4.526 3.846 10.737 18.238-7.384 6.275-10.729-18.244-4.657 3.958-4.208-7.252zM192.137 219.26l1.276 2.175-19.388 13.217zM186.685 209.966l1.27 2.166-19.374 13.219zM183.984 205.331l1.262 2.174-19.374 13.219zM176.54 204.727l1.262 2.173-19.374 13.219zM173.792 200.132l1.308 2.134-19.381 13.226zM189.395 214.594l1.269 2.166-19.373 13.219z" fill="#ed2647" data-fill-palette-color="accent"></path><path d="M229.645 174.408l2.189 1.252-10.24 21.102zM224.949 171.715l2.175 1.258-10.23 21.105zM208.979 169.303l2.495 0.371-10.23 21.105zM203.639 168.543l2.495 0.371-10.233 21.115zM214.321 170.053l2.496 0.371-10.23 21.105zM219.644 170.86l2.512 0.323-10.23 21.105zM204.199 166.989l3.205-8.898 10.345 2.445 0.114-0.315-8.392-7.87 3.263-9.06 15.609 18.011 7.353 4.114-3.15 8.745-7.335-4.162z" fill="#ed2647" data-fill-palette-color="accent"></path><path d="M4.771 123.184c0-7.254 5.88-13.134 13.134-13.134 7.254 0 13.134 5.88 13.134 13.134 0 7.254-5.88 13.134-13.134 13.134-7.254 0-13.134-5.88-13.134-13.134z" fill="#ed2647" data-fill-palette-color="accent"></path><path d="M218.164 123.184c0-7.254 5.88-13.134 13.134-13.134 7.254 0 13.134 5.88 13.133 13.134 0 7.254-5.88 13.134-13.133 13.134-7.254 0-13.134-5.88-13.134-13.134z" fill="#ed2647" data-fill-palette-color="accent"></path></g><g id="text-1"></g></svg></g></svg></g><g></g></svg></g><defs></defs></svg><rect width="245.09036478833397" height="247.2" fill="none" stroke="none" visibility="hidden"></rect></g></svg></g></svg>